HIERARCHY
ROOT Hips
{
	OFFSET -3.958830 18.904000 13.208200
	CHANNELS 6 Xposition Yposition Zposition Zrotation Yrotation Xrotation 
	JOINT LHipJoint
	{
		OFFSET 0.000000 0.000000 0.000000
		CHANNELS 3 Zrotation Yrotation Xrotation
		JOINT LeftUpLeg
		{
			OFFSET 1.800000 -1.400000 0.085000
			CHANNELS 3 Zrotation Yrotation Xrotation
			JOINT LeftLeg
			{
				OFFSET 2.215000 -6.000000 0.000000
				CHANNELS 3 Zrotation Yrotation Xrotation
				JOINT LeftFoot
				{
					OFFSET 2.500000 -6.900000 0.000000
					CHANNELS 3 Zrotation Yrotation Xrotation
					JOINT LeftToeBase
					{
						OFFSET 0.200000 -0.500000 1.950000
						CHANNELS 3 Zrotation Yrotation Xrotation
						End Site
						{
							OFFSET 0.000000 0.000000 0.000000
						}
					}
				}
			}
		}
	}
	JOINT RHipJoint
	{
		OFFSET 0.000000 0.000000 0.000000
		CHANNELS 3 Zrotation Yrotation Xrotation
		JOINT RightUpLeg
		{
			OFFSET -1.800000 -1.400000 0.085000
			CHANNELS 3 Zrotation Yrotation Xrotation
			JOINT RightLeg
			{
				OFFSET -2.215000 -6.000000 0.000000
				CHANNELS 3 Zrotation Yrotation Xrotation
				JOINT RightFoot
				{
					OFFSET -2.500000 -6.900000 0.000000
					CHANNELS 3 Zrotation Yrotation Xrotation
					JOINT RightToeBase
					{
						OFFSET -0.200000 -0.500000 1.950000
						CHANNELS 3 Zrotation Yrotation Xrotation
						End Site
						{
							OFFSET 0.000000 0.000000 0.000000
						}
					}
				}
			}
		}
	}
	JOINT LowerBack
	{
		OFFSET 0.000000 0.000000 0.000000
		CHANNELS 3 Zrotation Yrotation Xrotation
		JOINT Spine
		{
			OFFSET -0.087000 1.940000 -0.288900
			CHANNELS 3 Zrotation Yrotation Xrotation
			JOINT Spine1
			{
				OFFSET 0.000000 1.950000 0.060000
				CHANNELS 3 Zrotation Yrotation Xrotation
				JOINT Neck
				{
					OFFSET 0.000000 0.000000 0.000000
					CHANNELS 3 Zrotation Yrotation Xrotation
					JOINT Neck1
					{
						OFFSET 0.000000 1.600000 0.340000
						CHANNELS 3 Zrotation Yrotation Xrotation
						JOINT Head
						{
							OFFSET 0.000000 1.667000 -0.240000
							CHANNELS 3 Zrotation Yrotation Xrotation
							End Site
							{
								OFFSET 0.000000 0.000000 0.000000
							}
						}
					}
				}
				JOINT LeftShoulder
				{
					OFFSET 0.000000 0.000000 0.000000
					CHANNELS 3 Zrotation Yrotation Xrotation
					JOINT LeftArm
					{
						OFFSET 2.700000 1.550000 -0.730000
						CHANNELS 3 Zrotation Yrotation Xrotation
						JOINT LeftForeArm
						{
							OFFSET 5.450000 0.000000 0.000000
							CHANNELS 3 Zrotation Yrotation Xrotation
							JOINT LeftHand
							{
								OFFSET 3.450000 0.000000 0.000000
								CHANNELS 3 Zrotation Yrotation Xrotation
								JOINT LeftHandIndex1
								{
									OFFSET 0.750000 0.000000 0.000000
									CHANNELS 3 Zrotation Yrotation Xrotation
									End Site
									{
										OFFSET 0.000000 0.000000 0.000000
									}
								}
							}
						}
					}
				}
				JOINT RightShoulder
				{
					OFFSET 0.000000 0.000000 0.000000
					CHANNELS 3 Zrotation Yrotation Xrotation
					JOINT RightArm
					{
						OFFSET -2.700000 1.550000 -0.730000
						CHANNELS 3 Zrotation Yrotation Xrotation
						JOINT RightForeArm
						{
							OFFSET -5.450000 0.000000 0.000000
							CHANNELS 3 Zrotation Yrotation Xrotation
							JOINT RightHand
							{
								OFFSET -3.450000 0.000000 0.000000
								CHANNELS 3 Zrotation Yrotation Xrotation
								JOINT RightHandIndex1
								{
									OFFSET -0.750000 0.000000 0.000000
									CHANNELS 3 Zrotation Yrotation Xrotation
									End Site
									{
										OFFSET 0.000000 0.000000 0.000000
									}
								}
							}
						}
					}
				}
			}
		}
	}
}
MOTION
Frames: 9
Frame Time: 0.016667
-0.492690 17.223180 -1.812290 -1.602536 -10.566907 12.016221 -15.679608 8.885437 7.041838 27.894300 -5.308621 -50.980263 -46.449272 21.498420 25.790214 0.592128 11.762238 0.570434 -0.315100 -0.632110 -0.107850 18.637143 -7.038666 3.961874 -26.516790 5.816805 -46.041775 21.921641 -15.384198 32.642166 -0.669883 -6.982387 1.642662 -0.198550 0.730240 0.414470 -3.744427 -1.836142 -9.998065 18.639637 -3.532374 26.101522 -4.898001 2.074449 -0.004964 3.876659 -2.904726 -7.396711 -5.139091 5.561496 25.503307 -13.711630 8.791660 -18.495430 -21.164077 -3.555749 -0.115029 -33.834840 -2.756305 -6.082954 39.224059 -21.212614 -7.953559 -4.344763 2.399679 0.792770 0.382100 -0.041230 -0.017070 12.740053 6.033646 4.611953 47.535687 1.002707 -13.079065 11.861701 43.476546 2.542267 1.824080 -0.989504 -0.623520 0.532860 0.611180 -0.207020 
-0.482520 17.083490 -1.877790 -1.077813 -10.770268 12.373452 -15.807159 8.474242 7.278853 29.391920 -4.412773 -53.210828 -51.894488 21.733064 22.869632 0.699514 11.846307 0.527981 -0.306350 -0.598420 -0.079760 18.622178 -6.492696 4.287363 -30.226614 5.337806 -48.543826 25.191317 -17.271331 33.442285 -0.831541 -7.668687 1.384096 -0.189280 0.662780 0.439390 -3.591809 -2.038153 -10.306495 18.134372 -3.397184 28.527863 -3.683387 2.363080 0.121928 4.083654 -2.167756 -7.585521 -3.735483 5.465116 24.987380 -15.574210 9.705970 -20.111920 -20.245461 -3.422313 0.292073 -30.518581 -1.307235 -5.312122 38.330031 -19.999732 -6.861318 -4.359856 2.448401 0.790090 0.371500 -0.004230 -0.058330 11.530818 5.915775 4.447282 45.916239 1.753744 -13.232773 6.731085 47.456745 1.480589 1.766335 -1.015346 -0.589310 0.479030 0.614760 -0.227630 
-0.460830 16.911830 -1.949790 -1.297198 -10.556712 11.278390 -15.916685 8.248958 7.470199 30.962001 -3.300720 -54.268964 -56.580246 21.797770 20.547477 0.778477 11.902445 0.504357 -0.228640 -0.500930 0.032490 18.587506 -6.073476 4.457832 -33.619265 4.943172 -48.779912 29.160247 -19.157984 33.521026 -1.043756 -8.245304 1.183355 -0.152980 0.549910 0.445070 -3.411440 -2.365193 -10.513414 19.288025 -4.374282 34.158166 -3.080780 2.614977 -0.330697 4.725233 -1.801470 -7.515873 -2.826185 5.544812 23.691834 -18.694840 10.621210 -24.840340 -20.226416 -2.395573 0.299559 -24.220489 1.069170 -4.020550 35.372442 -19.018345 -5.247810 -4.312590 2.451779 0.848420 0.312630 0.086380 -0.072320 10.245844 5.263058 4.155399 42.644365 1.941592 -14.136551 -1.767398 55.780973 -1.274828 1.661320 -1.035060 -0.565320 0.461340 0.553690 -0.266740 
-0.443380 16.714480 -2.024420 -1.717643 -10.979003 9.237966 -15.993808 8.125825 7.559794 32.141495 -1.895386 -53.672540 -60.641532 21.440157 17.979714 0.877944 11.852812 0.515909 -0.240220 -0.489520 0.057460 18.556834 -5.760412 4.597084 -36.697962 5.041244 -48.276513 33.416232 -20.946096 33.591972 -1.227541 -8.759518 1.025477 -0.180150 0.454990 0.417410 -3.294163 -2.627820 -10.657271 20.852592 -5.412881 40.694082 -3.138952 3.067820 0.508008 5.324757 -1.850007 -8.466704 -2.730803 5.555446 22.997784 -21.372030 11.003810 -28.653470 -18.682353 -2.763164 1.479639 -18.831799 5.553377 -3.281396 30.059600 -19.345580 -3.897872 -4.215556 2.457154 0.886820 0.240370 0.145060 -0.106090 7.529484 6.427546 4.630788 41.781034 1.572251 -16.748486 -22.419669 62.529532 -11.795198 1.507384 -0.823960 -0.547420 0.440140 0.537310 -0.281410 
-0.427080 16.503950 -2.080010 -2.323804 -11.307292 6.857189 -16.035700 8.097220 7.500034 32.442375 -1.009444 -52.413264 -62.722607 21.535062 17.005055 1.011886 11.869943 0.525202 -0.249600 -0.453450 -0.009030 18.539588 -5.508662 4.763857 -39.620764 5.109682 -47.601618 38.582745 -23.132843 33.649059 -1.423709 -9.393661 0.863018 -0.188670 0.461600 0.426330 -3.233807 -2.877344 -10.724406 22.655991 -6.676015 46.699802 -3.122830 3.201397 1.238117 5.489719 -2.397217 -9.299986 -3.399293 6.283881 21.711561 -20.452650 11.042720 -28.483820 -16.369408 -2.543478 2.486905 -13.861140 10.703007 -2.451521 24.208525 -22.857904 -3.154926 -4.146382 2.561762 0.825660 0.241010 0.146270 -0.086310 4.950265 7.249291 4.895036 40.161199 2.549932 -16.646711 -50.901205 59.210286 -24.987973 1.339129 -0.462292 -0.490360 0.411770 0.531330 -0.227270 
-0.412050 16.306580 -2.137220 -3.097535 -12.230258 5.597349 -16.146264 8.099907 7.490020 32.997962 0.405036 -52.045179 -64.813411 22.344308 16.552486 1.127409 12.062631 0.509271 -0.286770 -0.482680 -0.070780 18.480831 -5.102840 4.943877 -41.978131 5.439977 -48.334192 42.946514 -25.218161 34.067208 -1.594736 -9.934958 0.737264 -0.211860 0.533300 0.455200 -3.048616 -3.418108 -10.818392 23.398220 -6.484570 51.482353 -1.216274 4.140656 2.004841 5.352866 -3.039676 -9.738150 -4.309363 7.487646 20.458593 -19.757370 11.538560 -27.137000 -14.399564 -1.533270 2.885316 -12.385010 15.118655 -2.432144 20.704611 -28.593427 -3.262855 -4.132245 2.654034 0.780650 0.284840 0.122840 -0.062140 3.317282 7.344898 5.124828 36.484388 2.982153 -14.331766 -70.283058 47.590729 -30.494086 1.538837 -0.699086 -0.478010 0.417180 0.552740 -0.185220 
-0.401280 16.125510 -2.171500 -3.928796 -13.415428 5.199748 -16.244483 8.096174 7.460902 33.166291 1.973942 -52.377993 -66.028275 24.110694 17.283677 1.157530 12.326585 0.431616 -0.300120 -0.513420 -0.080970 18.430052 -4.742676 5.149547 -44.486657 5.886642 -49.281063 47.929827 -26.414718 32.923948 -1.692863 -10.176587 0.683403 -0.202930 0.548130 0.421650 -2.902416 -3.806651 -10.926765 24.107161 -5.372956 54.712452 1.095489 5.880491 2.595859 4.719775 -3.260984 -9.929634 -4.490799 6.003905 20.015865 -17.776650 9.767920 -26.022250 -12.482609 -0.533083 3.133124 -10.881276 17.891748 -1.955845 13.206201 -27.165828 -1.795287 -4.132852 2.701861 0.783070 0.279330 0.083260 -0.078710 2.525792 7.432197 5.252907 31.946306 1.863083 -13.834825 -77.550366 36.442481 -27.884360 1.772544 -1.092102 -0.512020 0.439830 0.575880 -0.196230 
-0.382950 15.977240 -2.206010 -4.069377 -14.818409 4.076959 -16.341359 8.257366 7.345589 32.419259 2.804558 -52.612881 -65.714634 26.421675 19.466056 1.196167 12.651245 0.345419 -0.330250 -0.550240 -0.111180 18.348123 -4.498663 5.275990 -46.521108 6.468749 -49.525510 51.439660 -27.126971 32.282572 -1.758353 -10.373676 0.653022 -0.204620 0.597180 0.417880 -2.697877 -4.252432 -10.975823 24.294092 -4.027955 58.619536 2.033840 7.916124 2.541231 4.960063 -2.691627 -10.274674 -3.340229 4.799445 19.385512 -16.636040 8.990480 -24.549490 -11.646827 -0.425391 3.386827 -9.381397 19.398200 -1.345658 11.743912 -24.467655 -1.349568 -4.203298 2.688953 0.771260 0.316600 0.045800 -0.080400 1.025441 8.241687 5.533959 30.793867 1.054685 -14.775203 -81.790470 25.265661 -22.054185 1.926517 -1.390444 -0.540550 0.459890 0.603490 -0.197110 
-0.365520 15.857970 -2.246140 -4.374619 -16.528203 4.115588 -16.423403 8.219379 7.331221 32.163706 4.051864 -54.258754 -64.893049 28.711405 21.743917 1.237983 13.015914 0.269772 -0.350870 -0.596640 -0.128300 18.309592 -4.230419 5.452842 -48.047894 7.178141 -51.496247 54.048410 -27.656783 31.950878 -1.809377 -10.542929 0.632906 -0.207730 0.682050 0.446610 -2.609289 -4.414210 -11.074615 24.621396 -2.476463 60.315997 3.057498 9.694292 3.497529 5.097778 -2.312959 -10.870956 -2.605258 5.058354 19.450503 -15.788030 9.535650 -21.462830 -10.469026 -1.116184 4.197925 -9.722173 21.122405 -1.380711 10.528008 -23.196525 -1.203742 -4.292328 2.686427 0.744850 0.389960 0.001320 -0.058650 -0.515637 9.819245 5.758830 28.791332 1.510058 -15.662525 -83.109389 14.654322 -14.545894 2.044506 -1.607645 -0.567450 0.472670 0.620580 -0.193620 
